<?xml version="1.0" standalone="no"?>
<!DOCTYPE svg PUBLIC "-//W3C//DTD SVG 20010904//EN"
 "http://www.w3.org/TR/2001/REC-SVG-20010904/DTD/svg10.dtd">
<svg version="1.0" xmlns="http://www.w3.org/2000/svg"
 width="256.000000pt" height="256.000000pt" viewBox="0 0 256.000000 256.000000"
 preserveAspectRatio="xMidYMid meet">
<metadata>
Created by potrace 1.14, written by Peter Selinger 2001-2017
</metadata>
<g transform="translate(0.000000,256.000000) scale(0.100000,-0.100000)"
fill="#000000" stroke="none">
<path d="M1105 2407 c-271 -62 -417 -138 -580 -302 -198 -199 -307 -471 -300
-744 3 -115 8 -147 32 -231 8 -30 16 -62 18 -70 11 -53 87 -200 143 -279 62
-88 181 -204 262 -257 105 -68 255 -133 342 -149 12 -3 46 -9 73 -14 81 -16
328 -6 410 17 225 62 396 170 543 343 78 91 178 273 197 359 1 3 6 23 12 45
20 72 26 128 27 255 0 112 -2 143 -19 230 -20 102 -128 338 -175 380 -3 3 -18
23 -34 44 -71 94 -211 207 -337 271 -63 32 -170 72 -214 81 -27 5 -64 13 -95
20 -42 10 -262 11 -305 1z m391 -82 c180 -46 317 -125 449 -260 98 -101 114
-123 170 -227 86 -162 116 -296 111 -488 -19 -666 -693 -1117 -1315 -879 -75
28 -201 98 -229 126 -7 7 -17 13 -21 13 -14 0 -145 135 -189 195 -72 97 -147
262 -167 365 -42 216 -17 437 68 620 139 298 445 525 752 557 28 3 51 7 53 8
1 1 51 1 111 -1 72 -3 140 -12 207 -29z"/>
<path d="M1160 2282 c-354 -45 -645 -280 -755 -607 -28 -81 -31 -94 -44 -175
-8 -52 -6 -208 3 -260 31 -162 94 -305 184 -417 36 -45 52 -52 70 -30 9 10 -1
31 -41 89 -65 93 -110 189 -138 294 -30 113 -30 297 0 414 112 429 528 698
963 623 133 -23 295 -96 383 -173 33 -28 54 -31 65 -10 11 20 5 29 -51 74 -30
25 -167 106 -178 106 -5 0 -30 9 -55 20 -93 39 -299 66 -406 52z"/>
<path d="M1897 1973 c-13 -13 -7 -31 28 -76 61 -79 133 -227 150 -307 2 -8 8
-35 13 -59 11 -44 9 -248 -1 -306 -15 -80 -62 -200 -109 -279 -128 -210 -340
-356 -578 -396 -231 -40 -463 16 -648 155 -64 48 -92 53 -92 15 0 -13 21 -36
62 -66 253 -186 586 -227 877 -107 282 116 482 361 546 668 14 65 14 261 0
330 -27 138 -81 261 -165 376 -39 54 -65 70 -83 52z"/>
<path d="M716 1820 c-86 -26 -160 -50 -163 -54 -5 -5 8 -11 65 -31 11 -4 10
-9 -2 -27 -9 -12 -16 -32 -16 -45 0 -12 -5 -25 -11 -28 -6 -4 -7 -19 -4 -37 7
-31 -19 -108 -37 -108 -15 0 -8 -19 11 -30 15 -7 25 -5 42 9 18 14 23 30 26
77 2 32 3 66 3 74 -2 54 1 76 14 89 13 13 27 11 120 -18 l105 -32 156 48 c85
26 155 51 155 55 0 3 -60 25 -132 48 -73 22 -142 45 -154 49 -14 6 -66 -5
-178 -39z"/>
<path d="M1405 1685 c-291 -171 -288 -169 -346 -273 -12 -20 -77 -132 -145
-249 -75 -129 -121 -218 -118 -228 7 -16 44 -20 60 -6 5 5 81 51 169 101 88
51 207 121 265 156 l105 63 164 282 c162 278 173 305 135 315 -5 2 -135 -71
-289 -161z m174 -2 c-61 -110 -211 -363 -215 -363 -2 0 -43 39 -90 87 -75 75
-84 88 -68 94 11 4 98 55 194 112 96 58 181 105 187 106 8 1 5 -12 -8 -36z
m-340 -327 l83 -83 -199 -116 c-109 -63 -200 -114 -202 -112 -6 7 218 395 228
395 4 0 44 -38 90 -84z"/>
<path d="M669 1638 c-8 -91 -2 -108 47 -130 88 -38 308 -28 353 17 15 14 24
142 12 149 -3 2 -51 -11 -106 -29 -94 -30 -103 -31 -145 -19 -25 8 -47 14 -50
14 -18 2 -87 25 -96 32 -9 6 -13 -4 -15 -34z"/>
<path d="M1438 1228 c-4 -11 -3 -81 1 -106 2 -13 240 -10 244 2 2 6 4 34 3 61
l-1 50 -121 3 c-92 2 -123 -1 -126 -10z"/>
<path d="M1540 1075 c0 -13 -21 -15 -130 -15 -97 0 -130 -3 -131 -12 0 -7 -2
-23 -3 -35 -2 -19 2 -23 25 -23 20 0 27 4 23 14 -7 18 16 22 106 20 117 -3
113 -3 106 -19 -3 -8 -2 -15 2 -16 4 0 15 -2 25 -4 11 -2 17 3 17 16 0 22 -9
21 110 22 84 2 96 0 106 -17 12 -20 43 -31 45 -15 1 5 1 18 1 29 0 11 0 25 -1
30 -1 6 -50 10 -126 10 -102 0 -127 3 -131 15 -4 8 -15 15 -25 15 -10 0 -19
-7 -19 -15z"/>
<path d="M1224 946 c-3 -8 -4 -27 -2 -43 3 -28 4 -28 73 -30 39 0 75 3 81 8 6
4 10 23 10 41 l-1 33 -78 3 c-60 2 -79 0 -83 -12z"/>
<path d="M1479 948 c-1 -7 -2 -20 -3 -28 -4 -39 11 -48 86 -46 l73 1 6 37 c7
45 2 48 -92 48 -48 0 -69 -4 -70 -12z"/>
<path d="M1739 953 c-6 -45 -4 -64 5 -72 6 -4 43 -8 81 -7 l70 1 0 40 0 40
-77 3 c-43 2 -78 -1 -79 -5z"/>
<path d="M1031 282 c-7 -2 -11 -37 -11 -88 l0 -84 63 0 c50 0 64 3 64 15 0 11
-12 15 -49 15 -44 0 -48 2 -48 24 0 21 5 24 33 24 51 0 57 1 51 15 -3 9 -19
13 -44 11 -33 -2 -40 1 -40 17 0 11 7 19 18 20 9 1 29 2 45 3 46 2 31 21 -22
26 -27 3 -54 4 -60 2z"/>
<path d="M1211 269 c-33 -20 -47 -55 -37 -94 14 -56 68 -79 130 -55 21 8 26
16 26 45 0 33 -2 35 -35 35 -24 0 -35 -5 -35 -15 0 -8 3 -14 8 -14 36 6 44
-17 10 -30 -28 -10 -65 5 -73 30 -10 30 6 70 31 79 25 10 54 4 54 -11 0 -5 9
-9 20 -9 25 0 26 12 2 33 -27 25 -66 27 -101 6z"/>
<path d="M1398 278 c-56 -19 -38 -80 27 -92 27 -5 35 -12 33 -24 -4 -23 -56
-29 -64 -8 -8 20 -34 21 -34 2 0 -39 66 -60 111 -36 22 12 26 62 6 79 -12 9
-41 18 -70 20 -5 1 -7 8 -5 18 4 21 34 25 49 7 16 -20 29 -17 29 5 0 25 -46
41 -82 29z"/>
</g>
</svg>
